# xmcd
#
# Track frame offsets: 
#        300
#        17795
#        40367
#        51225
#        67892
#        92145
#        104835
#        127277
#        135795
#        157082
#        179325
#        197555
#        239100
#        257822
#        273675
#        306802
#
# Disc length: 4803 seconds
#
# Revision: 23
# Processed by: cddbd v1.5.2PL0 Copyright (c) Steve Scherf et al.
# Submitted via: ExactAudioCopy v0.99pb5
#
DISCID=f612bf10
DTITLE=Stevie Ray Vaughan - The Essential Stevie Ray Vaughan And Doubl
DTITLE=e Trouble CD1
DYEAR=2002
DGENRE=Rock
TTITLE0=Shake For Me (live)
TTITLE1=Rude Mood - Hide Away (live)
TTITLE2=Love Struck Baby
TTITLE3=Pride And Joy
TTITLE4=Texas Flood
TTITLE5=Mary Had A Little Lamb
TTITLE6=Lenny
TTITLE7=Scuttle Buttin'
TTITLE8=Couldn't Stand The Weather
TTITLE9=The Things (That) I Used To Do
TTITLE10=Cold Shot
TTITLE11=Tin Pan Alley (aka Roughest Place In Town)
TTITLE12=Give Me Back My Wig
TTITLE13=Empty Arms
TTITLE14=The Sky Is Crying (live)
TTITLE15=Voodoo Child (Slight Return) (live)
EXTD=
EXTT0=
EXTT1=
EXTT2=
EXTT3=
EXTT4=
EXTT5=
EXTT6=
EXTT7=
EXTT8=
EXTT9=
EXTT10=
EXTT11=
EXTT12=
EXTT13=
EXTT14=
EXTT15=
PLAYORDER=
